<svg width="22" height="22" viewBox="0 0 0.66 0.66" fill="none" xmlns="http://www.w3.org/2000/svg">
    <path d="M0.22 0.289a0.041 0.041 0 1 1 -0.083 0 0.041 0.041 0 0 1 0.083 0" fill="#5f5f5f" />
    <path d="M0.289 0.22a0.041 0.041 0 1 0 0 -0.083 0.041 0.041 0 0 0 0 0.083" fill="#5f5f5f" />
    <path d="M0.468 0.179a0.041 0.041 0 1 1 -0.083 0 0.041 0.041 0 0 1 0.083 0" fill="#5f5f5f" />
    <path d="M0.206 0.468a0.041 0.041 0 1 0 0 -0.083 0.041 0.041 0 0 0 0 0.083" fill="#5f5f5f" />
    <path fill-rule="evenodd" clip-rule="evenodd" d="M0.028 0.33C0.028 0.163 0.163 0.028 0.33 0.028c0.164 0 0.302 0.12 0.302 0.275v0c0 0.015 0 0.039 -0.009 0.068 -0.023 0.076 -0.106 0.096 -0.17 0.08 -0.013 -0.003 -0.027 -0.007 -0.04 -0.011 -0.022 -0.006 -0.042 0.013 -0.038 0.034l0.009 0.044 0.003 0.019c0.008 0.049 -0.03 0.099 -0.085 0.092 -0.093 -0.012 -0.162 -0.048 -0.208 -0.102C0.048 0.472 0.028 0.403 0.028 0.33m0.302 -0.247a0.247 0.247 0 0 0 -0.247 0.247c0 0.063 0.018 0.118 0.054 0.16 0.036 0.042 0.092 0.073 0.174 0.083 0.013 0.002 0.027 -0.01 0.024 -0.028l-0.003 -0.018 -0.009 -0.043c-0.013 -0.063 0.048 -0.114 0.107 -0.097 0.012 0.004 0.025 0.007 0.038 0.01 0.049 0.013 0.093 -0.007 0.104 -0.042 0.006 -0.021 0.006 -0.039 0.006 -0.053 0 -0.12 -0.108 -0.22 -0.247 -0.22" fill="#5f5f5f" />
</svg>